PathFileType	4	(X/Y/Z)	/home/abdul/Desktop/myosuite/custom_workspace/IK/output/S16_12_3.trc
DataRate	CameraRate	NumFrames	NumMarkers	Units	OrigDataRate	OrigDataStartFrame	OrigNumFrames
200.0	200.0	61	3	mm	200.0	153	1220
Frame#	Time	V_Shoulder			V_Elbow			V_Wrist		
		X1	Y1	Z1	X2	Y2	Z2	X3	Y3	Z3

153	0.76	-147.9491222498623	620.1876829569237	289.36835863512783	-281.01083585130334	487.8507828739479	17.1500102177097	-248.65490451527987	334.2099085323199	35.01962276970219
154	0.765	-147.773665949841	620.0788725067691	289.56556996657395	-281.19300499007875	487.4605711312044	17.579518168926825	-248.52101320371685	333.6028745644643	35.675280706356624
155	0.77	-147.59461702371584	619.9627610904007	289.76528518501055	-281.3733484582431	487.0489443147062	18.019364277138756	-248.3617010654921	332.9613976917218	36.344535368965204
156	0.775	-147.41201003133145	619.8391420262334	289.9673446427314	-281.55140468774823	486.6156613032557	18.469256079336176	-248.17618264443175	332.28496776461714	37.02675818447478
157	0.78	-147.22588170998588	619.707811949046	290.1715845159138	-281.726706895529	486.1605138025458	18.928880168502282	-247.9637093514497	331.5731228130645	37.72128597759671
158	0.785	-147.03627087233394	619.5685711949027	290.37783712008627	-281.898784331063	485.68332733167955	19.39790277666194	-247.72357203693502	330.82545099527124	38.427422248934874
159	0.79	-146.84321830104258	619.4212241852821	290.5859312360387	-282.0671635556914	485.1839621225316	19.875970423117394	-247.4551034618649	330.0415924342785	39.14443856086251
160	0.795	-146.64676664057194	619.2655798095649	290.7956924453144	-282.2313697492675	484.6623139279982	20.362710626069255	-247.15768065714389	329.2212409346515	39.87157602693618
161	0.8	-146.44696028646175	619.1014518050362	291.00694347439327	-282.39092803952906	484.11831473552274	20.857732675552768	-246.83072716110757	328.36414557221974	40.60804690024451
162	0.805	-146.24384527251493	618.9286591335434	291.2195045466436	-282.54536484944236	483.55193338264036	21.36062846535744	-246.47371512561844	327.4701121501859	41.35303625572052
163	0.81	-146.03746915627312	618.7470263539568	291.4331937410937	-282.69420925763217	482.963176071657	21.870973381344843	-246.08616728172592	326.5390045153736	42.10570376110193
164	0.815	-145.8278809031876	618.5563839895771	291.64782735704983	-282.8369943669074	482.35208678097064	22.388327243335574	-245.66765875645268	325.57074572886853	42.86518553090444
165	0.82	-145.61513076989067	618.3565688896359	291.86322028356557	-282.97325867580435	481.71874757094423	22.912235297503795	-245.21781873290706	324.5653190858146	43.63059605748029
166	0.825	-145.3992701869755	618.1474245840465	292.0791863727508	-283.10254744800716	481.0632787826538	23.442229255997386	-244.73633194659794	323.52276897966505	44.40103021296906
167	0.83	-145.1803516416936	617.9288016305595	292.2955388158927	-283.2244140744673	480.3858391282601	23.977828380295012	-244.2229400115453	322.44320160674374	45.17556531571083
168	0.835	-144.95842856097738	617.7005579534983	292.51209052135073	-283.3384214230267	479.6866256721808	24.518540604619098	-243.67744257052584	321.32678550755213	45.95326325448349
169	0.84	-144.73355519519396	617.4625591732519	292.7286544931787	-283.4441431703607	478.9658737026773	25.063863695547436	-243.09969826457228	320.1737519418515	46.733172663747425
170	0.845	-144.50578650303123	617.2146789257239	292.9450442094239	-283.5411651110892	478.22385649390594	25.613286443806338	-242.4896255176428	318.98439509515975	47.51433114293103
171	0.85	-144.27517803791287	616.9567991709486	293.16107399905064	-283.6290864389614	477.46088495892246	26.16628988408618	-241.84720313319863	317.7590721149229	48.295767512670906
172	0.855	-144.0417858363309	616.6888104901042	293.3765594164399	-283.70752099510435	476.6773071945627	26.72234853859663	-241.17247070026087	316.49820297524946	49.07650410082984
173	0.86	-143.80566630847696	616.4106123701755	293.5913176124195	-283.77609847842797	475.87350791955305	27.28093167997436	-240.46552880735965	315.20227016972984	49.85555905105413
174	0.865	-143.56687613154233	616.1221134755382	293.80516770079373	-283.83446561341145	475.04990780762915	27.841504609071247	-239.72653906363652	313.87181823249966	50.6319486465989
175	0.87	-143.32547214604634	615.8232319057638	294.01793111934745	-283.88228727064586	474.20696271785414	28.403529943086905	-238.95572392720723	312.5074530883388	51.404689642144675
176	0.875	-143.08151125553914	615.5138954389714	294.229431984322	-283.91924753568384	473.34516282473135	28.96646890946541	-238.15336634173156	311.10984123322874	52.17280159635068
177	0.88	-142.83505033001114	615.1940417600769	294.4394974373768	-283.9450507219421	472.4650316510971	29.529782640953574	-237.3198091829678	309.6797087474157	52.93530919793865
178	0.885	-142.586146113325	614.8636186733257	294.647957984072	-283.95942232361887	471.56712500715173	30.092933467216316	-236.45545451790323	308.2178401436379	53.69124457817411
179	0.89	-142.33485513497052	614.5225842985246	294.85464782293724	-283.96210990482325	470.6520298393467	30.65538619842432	-235.56076267984884	306.72507705377734	54.439649602710446
180	0.895	-142.08123362642345	614.1709072504192	295.0594051642174	-283.9528839213689	469.7203629931806	31.21660939626983	-234.6362511636543	305.20231675777984	55.17957813588136
181	0.9	-141.8253374423715	613.8085668007062	295.26207253741995	-283.9315384719523	468.7727698942776	31.776076627927868	-233.6824933459459	303.6505105592547	55.91009827067002
182	0.905	-141.56722198704924	613.4355530221984	295.46249708682154	-283.89789197572406	467.8099231524145	32.33326769856242	-232.70011703599775	302.07066201271016	56.63029451774649
183	0.91	-141.30694214590372	613.0518669147032	295.66053085413284	-283.8517877735611	466.832521093435	32.88766985807933	-231.68980286352502	300.46382500790463	57.33926994714717
184	0.915	-141.04455222279077	612.6575205122131	295.85603104755677	-283.7930946506593	465.8412862242376	33.43877897794954	-230.6522825103215	298.83110171729004	58.036148276370184
185	0.92	-140.7801058828776	612.2525369710497	296.0488602965219	-283.7217072783923	464.83696363624347	33.9861006940674	-229.58833679326162	297.1736404129945	58.72007589887748
186	0.925	-140.51365610140584	611.8369506386389	296.23888689141467	-283.63754657371146	463.82031935294583	34.52915151176744	-228.49879360673538	295.4926331602327	59.390223847226466
187	0.93	-140.24525511844402	611.4108071026452	296.4259850076844	-283.54055997470545	462.7921386273098	35.067459869299604	-227.38452573308916	293.7893133944441	60.04578968529936
188	0.935	-139.97495439973363	610.9741632202308	296.61003491374305	-283.4307216312827	461.7532241949304	35.600567156255856	-226.24644853010145	292.06495338983405	60.68599932435749
189	0.94	-139.70280460370938	610.5270871272514	296.79092316213286	-283.3080325102908	460.7043944889668	36.12802868364865	-225.08551750492592	290.32086162734254	61.31010875791672
190	0.945	-139.42885555474678	610.0696582272479	296.96854276348864	-283.1725204147392	459.6464818229548	36.6494146025644	-223.90272578428977	288.5583800703716	61.91740571072047
191	0.95	-139.15315622266658	609.6019671601335	297.14279334287613	-283.02423991714613	458.58033054765326	37.16431076855014	-222.6991014910353	286.77888135687795	62.50721119737524
192	0.955	-138.87575470849887	609.1241157505272	297.31358127814246	-282.86327220738013	457.50679518810614	37.67231954913826	-221.47570503734107	284.98376591667864	63.07888098650979
193	0.96	-138.59669823648434	608.636216935727	297.48081981997296	-282.68972485571777	456.42673856709837	38.1730605721716	-220.2336263451558	283.1744590230144	63.63180696662243
194	0.965	-138.3160331522648	608.1383946733646	297.6444291934053	-282.5037314921826	455.341029921157	38.66617141285713	-218.9739820045196	281.3524077875843	64.16541841008969
195	0.97	-138.0338049271896	607.6307838288293	297.80433668061204	-282.3054514035683	454.25054301519106	39.15130821775017	-217.6979123805367	279.5190781083894	64.67918313212289
196	0.975	-137.7500581686395	607.113530042594	297.96047668481873	-282.09506904987757	453.1561542617804	39.62814626415051	-216.40657867980445	277.6759515798151	65.17260854177704
197	0.98	-137.4648366362452	606.586789577626	298.11279077528764	-281.8727935022303	452.0587408510189	40.096380453676225	-215.1011599870886	275.8245223744334	65.64524258243637
198	0.985	-137.17818326385353	606.0507291471057	298.26122771335355	-281.63885780460225	450.9591788966836	40.55572573906779	-213.7828502829762	273.9662941060224	66.0966745595243
199	0.99	-136.8901401870709	605.5055257227274	298.405743459559	-281.3935182620509	449.8583416043489	41.005917483564076	-212.45285545312612	272.1027766832809	66.52653585350961
200	0.995	-136.6007487761909	604.951366323898	298.5463011619944	-281.13705365837035	448.7570974668878	41.44671175248013	-211.1123902995845	270.2354831636594	66.93450051660601
201	1.0	-136.31004967429084	604.3884477881934	298.68287112600757	-280.86976440638045	447.65630849260634	41.877885536903904	-209.76267556443193	268.3659266166381	67.3202857518885
202	1.005	-136.01808284026163	603.8169765234802	298.8154307655034	-280.5919716343093	446.5568284710415	42.29923690971315	-208.4049349757911	266.4956170056581	67.68365227387527
203	1.01	-135.72488759651426	603.2371682421478	298.94396453611347	-280.3040162119587	445.4595012812241	42.71058511439328	-207.0403923259421	264.62605809775584	68.02440454994898
204	1.015	-135.43050268108854	602.6492476779412	299.0684638505681	-280.00625772055855	444.36515924695607	43.11177058741093	-205.6702685909791	262.75874440975815	68.34239092231546
205	1.02	-135.1349663038706	602.0534482859234	299.18892697665893	-279.69907337041104	443.27462154339366	43.50265491516441	-204.29577910109055	260.8951581996808	68.63750361051991
206	1.025	-134.83831620661059	601.4500119261398	299.30535891823394	-279.38285687060124	442.18869265895125	43.88312072679053	-202.91813077016468	259.036766511721	68.90967859486172
207	1.03	-134.540589726415	600.8391885315899	299.41777127971386	-279.0580172552027	441.10816091625856	44.25307152435545	-201.53851939301444	257.1850182829601	69.15889538136649
208	1.035	-134.241823862376	600.221235761153	299.52618211467313	-278.7249776705446	440.0337970556077	44.61243145219484	-200.15812701807835	255.3413415195907	69.38517664928965
209	1.04	-133.9420553449859	599.5964186381484	299.63061575907193	-278.3841741282148	438.9663528840297	44.961145007394066	-198.778119403	253.50714055015743	69.58858778243845
210	1.045	-133.64132070797504	598.9650091752442	299.7311026497716	-278.0360542285647	437.90655999282956	45.29917669361165	-197.39964356000957	251.68379336294853	69.7692362859075
211	1.05	-133.33965636220145	598.3272859864637	299.82767912900897	-277.68107585955084	436.8551285461046	45.62651062064796	-196.02382539754015	249.87264903431128	69.92727109012829
212	1.055	-133.03709867121287	597.6835338870654	299.92038723554384	-277.3197058757923	435.8127461424535	45.943150052344976	-194.65176746400206	248.07502525427088	70.0628817444334
213	1.06	-132.73368402809513	597.034043482104	300.0092744832337	-276.95241876274827	434.78007675177616	46.24911690557127	-193.28454679912267	246.2922059554307	70.17629750263224
